<?xml version="1.0" encoding="utf-8"?>
<!-- Generator: Adobe Illustrator 22.0.0, SVG Export Plug-In . SVG Version: 6.00 Build 0)  -->
<svg version="1.1" id="레이어_1" xmlns="http://www.w3.org/2000/svg" xmlns:xlink="http://www.w3.org/1999/xlink" x="0px"
	 y="0px" viewBox="0 0 51.3 46.7" style="enable-background:new 0 0 51.3 46.7;" xml:space="preserve">
<style type="text/css">
	.st0{fill:#040000;}
</style>
<g id="XMLID_132_">
	<path id="XMLID_136_" class="st0" d="M38.7,22.1L38.7,22.1l-10.5,0v6.1v0.9v0.6h3.5h7v0h0c2.5,0,4.6,2.1,4.6,4.6
		c0,2.5-2.1,4.6-4.6,4.6h0l0,3.8v3.8h0c6.7,0,12.1-5.4,12.1-12.1C50.8,27.6,45.4,22.1,38.7,22.1z"/>
	<path id="XMLID_135_" class="st0" d="M38.8,11.1c0-5.9-4.8-10.6-10.6-10.6v3.8V8c1.7,0,3.1,1.4,3.1,3.1c0,1.7-1.4,3.1-3.1,3.1V18
		v3.8C34,21.7,38.8,17,38.8,11.1z"/>
	<polygon id="XMLID_134_" class="st0" points="28.2,32.2 27.3,30.1 27.1,29.7 26.8,29.1 26.7,28.7 23.2,20.5 17.9,8.3 14.7,0.8 
		14.6,0.5 10.2,12.3 14.7,23.2 18.5,32.3 24.3,46.4 24.8,46.4 34.3,46.4 33.9,45.4 	"/>
	<polygon id="XMLID_133_" class="st0" points="3.7,30 0.8,37.8 16.6,37.8 16.6,32.3 16.6,30 14.7,30 	"/>
</g>
</svg>
